<svg fill="none" height="24" viewBox="0 0 24 24" width="24" xmlns="http://www.w3.org/2000/svg"><path d="m5 13h11.86l-3.63 4.36c-.084.1011-.1474.2178-.1863.3434-.039.1256-.0528.2576-.0407.3885.0244.2645.1528.5084.357.6781s.4675.2514.7319.227.5084-.1528.6781-.357l5-6c.0336-.0477.0637-.0979.09-.15 0-.05.05-.08.07-.13.0453-.1147.0691-.2367.07-.36-.0009-.1233-.0247-.2453-.07-.36 0-.05-.05-.08-.07-.13-.0263-.0521-.0564-.1023-.09-.15l-5-6c-.094-.11288-.2118-.20366-.3448-.26588-.1331-.06222-.2783-.09436-.4252-.09412-.2337-.00045-.4601.08092-.64.23-.1013.08395-.185.18705-.2463.3034-.0614.11635-.0992.24365-.1112.37463-.0121.13098.0018.26305.0408.38865.0391.12561.1025.24227.1867.34332l3.63 4.36h-11.86c-.26522 0-.51957.1054-.70711.2929-.18753.1875-.29289.4419-.29289.7071s.10536.5196.29289.7071c.18754.1875.44189.2929.70711.2929z" fill="#fff"/></svg>